<svg xmlns="http://www.w3.org/2000/svg" viewBox="0 0 200 200" role="img" aria-labelledby="title">
<title>StoneCarta seal</title>
<defs><linearGradient id="g" x1="0" y1="0" x2="1" y2="1"><stop stop-color="#f1d38a"/><stop offset=".5" stop-color="#b98a43"/><stop offset="1" stop-color="#7c5728"/></linearGradient></defs>
<circle cx="100" cy="100" r="92" fill="#090a0b" stroke="url(#g)" stroke-width="5"/>
<circle cx="100" cy="100" r="78" fill="none" stroke="#b98a43" stroke-width="2" opacity=".8"/>
<path d="M63 64c0-20 14-31 37-31 15 0 28 5 37 15l-13 14c-7-8-14-11-24-11-10 0-17 5-17 13 0 9 8 12 22 18 20 8 32 18 32 38 0 27-20 44-49 44-19 0-37-8-48-22l14-15c10 12 21 18 35 18 14 0 25-8 25-20 0-11-9-16-25-22-18-7-26-17-26-39Z" fill="url(#g)"/>
<path d="M126 59c-8-6-16-8-25-8-13 0-21 6-21 15 0 8 6 12 17 17l9 4c18 8 28 18 28 37 0 26-19 42-47 42-9 0-18-2-26-6" fill="none" stroke="#f1e6cc" stroke-width="4" opacity=".9"/>
<path d="M68 157h64M77 164h46M83 171h34" stroke="url(#g)" stroke-width="4" stroke-linecap="round"/>
</svg>
