<svg xmlns="http://www.w3.org/2000/svg" viewBox="0 0 320 92" role="img" aria-labelledby="title desc">
  <title id="title">StoneCarta</title><desc id="desc">A refined circular charter seal with SC monogram and foundation pillars.</desc>
  <defs>
    <linearGradient id="g" x1="0" y1="0" x2="1" y2="1"><stop stop-color="#f0d693"/><stop offset=".48" stop-color="#c8a45d"/><stop offset="1" stop-color="#8b682f"/></linearGradient>
  </defs>
  <g fill="none" stroke="url(#g)" stroke-linecap="round" stroke-linejoin="round">
    <circle cx="45" cy="45" r="39" stroke-width="1.4"/><circle cx="45" cy="45" r="34" stroke-width=".75" opacity=".75"/>
    <path d="M25 31c5-8 13-12 22-12 6 0 11 1 15 4M62 25c-5 1-10 4-13 8-3 4-4 8-4 12 0 6 2 10 6 13 4 4 9 5 15 4" stroke-width="2"/>
    <path d="M58 29c-3-4-7-6-12-6-8 0-14 5-14 11 0 7 7 9 14 11 8 2 15 5 15 12 0 7-7 12-16 12-7 0-13-3-17-8" stroke-width="1.8"/>
    <path d="M22 71h46M27 68h36M30 63h30M33 61V49M40 61V47M50 61V47M57 61V49" stroke-width="1.25"/>
    <path d="M30 47h30l-3-4H33zM27 68l3 3h30l3-3" stroke-width="1"/>
  </g>
  <g fill="#f4efe5">
    <text x="99" y="42" font-family="Georgia,Times New Roman,serif" font-size="27" letter-spacing="4.5">STONECARTA</text>
    <text x="101" y="61" font-family="Arial,sans-serif" font-size="7.5" letter-spacing="2.35" fill="#c8a45d">BUILT ON LEGACY · STRUCTURED FOR CONTINUITY</text>
  </g>
</svg>
